<svg width="16" height="16" viewBox="0 0 16 16" fill="none" xmlns="http://www.w3.org/2000/svg">
<path d="M13.4105 3.83156C12.8458 3.55823 12.1905 3.63023 11.6978 4.0189L8.33317 6.67547V5.30877C8.33317 4.67277 7.97981 4.10689 7.41048 3.83156C6.84581 3.55823 6.18984 3.63023 5.69783 4.0189L2.29053 6.70949C1.89386 7.02216 1.6665 7.4922 1.6665 7.99953C1.6665 8.50686 1.89386 8.97623 2.29053 9.28957L5.69783 11.9808C5.99184 12.2135 6.34516 12.3322 6.70182 12.3322C6.94182 12.3322 7.18382 12.2781 7.41048 12.1681C7.97981 11.8921 8.33317 11.3261 8.33317 10.6908V9.32359L11.6978 11.9808C11.9918 12.2135 12.3452 12.3322 12.7018 12.3322C12.9418 12.3322 13.1838 12.2781 13.4105 12.1681C13.9798 11.8921 14.3332 11.3261 14.3332 10.6908V5.30877C14.3332 4.67344 13.9798 4.10756 13.4105 3.83156ZM7.6665 10.6916C7.6665 11.0756 7.46187 11.4029 7.11987 11.5689C6.78254 11.7329 6.40585 11.6909 6.11051 11.4575L2.70321 8.76613C2.46787 8.58013 2.33317 8.30086 2.33317 7.99953C2.33317 7.6982 2.46787 7.41826 2.70321 7.23293L6.11051 4.54217C6.40518 4.30951 6.78254 4.26751 7.11987 4.43084C7.46254 4.59684 7.6665 4.92479 7.6665 5.30812V10.6916ZM13.6665 10.6916C13.6665 11.0756 13.4619 11.4029 13.1199 11.5689C12.7832 11.7329 12.4058 11.6909 12.1105 11.4575L8.70321 8.76613C8.46787 8.58013 8.33317 8.30086 8.33317 7.99953C8.33317 7.6982 8.46787 7.41826 8.70321 7.23293L12.1105 4.54217C12.4052 4.30951 12.7832 4.26751 13.1199 4.43084C13.4625 4.59684 13.6665 4.92479 13.6665 5.30812V10.6916Z" fill="white"/>
</svg>
