<svg width="23" height="28" viewBox="0 0 23 28" fill="none" xmlns="http://www.w3.org/2000/svg">
<path d="M22.6032 19.0392C19.5406 17.5869 19.4687 14.9269 19.4831 14.4093V14.3805C19.4831 12.5113 20.2739 11.1453 21.9993 10.0957C22.1719 9.99503 22.2869 9.82247 22.33 9.63555C22.3731 9.44863 22.33 9.24735 22.215 9.07481C21.0216 7.34937 19.1955 6.37161 16.823 6.18469C16.2479 6.14155 15.6727 6.21346 15.112 6.32848C15.4427 6.05529 15.7734 5.72456 16.0897 5.3651C17.8439 3.2802 17.7001 1.32472 17.6426 0.663301C17.6138 0.275078 17.2688 -0.0268611 16.8805 0.00189613C15.342 0.0881679 13.5303 1.02275 12.4663 2.25931C11.2441 3.63966 10.669 5.26446 10.8128 6.94676C10.8128 7.03303 10.8415 7.10493 10.8702 7.17682C10.6977 7.1193 10.5252 7.0474 10.3526 6.98989C9.40364 6.6448 8.32525 6.25657 7.30437 6.25657C3.68095 6.31408 0 9.21857 0 14.6681C0 16.2497 0.287581 17.9033 0.862727 19.6C1.56728 21.613 4.28484 27.3213 7.60631 27.3213C7.63506 27.3213 7.66382 27.3213 7.69258 27.3213C8.4834 27.3069 9.14483 27.0481 9.77749 26.8036C10.482 26.5304 11.1291 26.286 12.0206 26.286C12.8258 26.286 13.444 26.5305 14.0911 26.7749C14.7813 27.0481 15.4858 27.3213 16.406 27.3213C19.785 27.2782 22.33 21.8286 22.9627 19.9307C23.0777 19.5856 22.9196 19.2117 22.5889 19.0536L22.6032 19.0392ZM13.5591 3.17956C14.2061 2.41749 15.2557 1.79919 16.2335 1.54038C16.1903 2.25931 15.9459 3.30896 14.9969 4.43049C14.3787 5.14943 13.4297 5.98339 12.2506 6.14156C12.3225 5.09192 12.7683 4.08543 13.5591 3.19395V3.17956ZM16.4204 25.8546C15.7734 25.8546 15.2414 25.6533 14.6375 25.4089C13.9329 25.1357 13.1277 24.8194 12.0493 24.8194C10.899 24.8194 10.0507 25.1501 9.28863 25.4377C8.71348 25.6534 8.22457 25.8403 7.67818 25.8546C7.6638 25.8546 7.64943 25.8546 7.63505 25.8546C5.50701 25.8546 3.03389 21.3973 2.24306 19.1111C1.72543 17.5869 1.45226 16.0772 1.45226 14.6537C1.45226 9.92315 4.50052 7.72322 7.33311 7.68008C8.09518 7.68008 9.04415 8.02514 9.87811 8.32709C10.6258 8.60029 11.2154 8.816 11.7186 8.816C12.15 8.816 12.6532 8.62904 13.3434 8.37023C14.3499 7.99638 15.6008 7.5219 16.7367 7.62255C18.4047 7.75196 19.67 8.31272 20.6046 9.31922C18.9079 10.5845 18.0596 12.2812 18.0596 14.3805C18.0452 15.0132 18.1315 18.1477 21.4242 20.0457C20.5327 22.3319 18.4478 25.8403 16.4348 25.869L16.4204 25.8546Z" fill="#503D2E"/>
</svg>
