<svg width="48" height="48" viewBox="0 0 24 24" fill="#25314C" xmlns="http://www.w3.org/2000/svg"><path d="M20.116 5.747a2.416 2.416 0 0 0-2.569.281L12.5 10.014V7.963a2.443 2.443 0 0 0-1.384-2.216 2.416 2.416 0 0 0-2.569.281l-5.111 4.036a2.468 2.468 0 0 0 0 3.87l5.111 4.037a2.443 2.443 0 0 0 3.953-1.934v-2.052l5.047 3.987a2.443 2.443 0 0 0 3.953-1.935V7.963a2.443 2.443 0 0 0-1.384-2.216ZM11.5 16.037a1.433 1.433 0 0 1-.82 1.316 1.4 1.4 0 0 1-1.514-.166L4.055 13.15a1.47 1.47 0 0 1 0-2.3l5.111-4.037a1.406 1.406 0 0 1 1.514-.166 1.433 1.433 0 0 1 .82 1.316Zm9 0a1.433 1.433 0 0 1-.82 1.316 1.4 1.4 0 0 1-1.514-.166l-5.111-4.037a1.47 1.47 0 0 1 0-2.3l5.111-4.037a1.407 1.407 0 0 1 1.514-.166 1.433 1.433 0 0 1 .82 1.316Z" fill="#f7f7f7"></path></svg>