<svg width="25" height="25" viewBox="0 0 25 25" fill="none" xmlns="http://www.w3.org/2000/svg">
<path d="M12.5 0C5.60714 0 0 5.63667 0 12.5658C0 18.7889 4.44048 24.0187 10.5476 24.9761C10.7143 25 10.8929 24.9521 11.0238 24.8444C11.1548 24.7367 11.2262 24.5692 11.2262 24.3897V16.1561C11.2262 15.821 10.9643 15.5577 10.6309 15.5577H8.34523V13.1642H10.6309C10.9643 13.1642 11.2262 12.9009 11.2262 12.5658V9.93299C11.2262 7.38392 12.6072 5.98372 15.131 5.98372C15.9048 5.98372 16.7024 6.0675 17.2024 6.13931V7.86262H16.2976C14.7381 7.86262 13.7619 8.80805 13.7619 10.3279V12.5778C13.7619 12.9129 14.0238 13.1762 14.3571 13.1762H17.1071L16.75 15.5696H14.3571C14.0238 15.5696 13.7619 15.8329 13.7619 16.168V24.4016C13.7619 24.5811 13.8333 24.7487 13.9643 24.8564C14.0714 24.9521 14.2143 25 14.3571 25C14.3929 25 14.4167 25 14.4524 25C20.5595 24.0306 25 18.8128 25 12.5898C25 5.66061 19.3929 0.02394 12.5 0.02394V0ZM14.9524 23.6716V16.7544H17.2619C17.5595 16.7544 17.8095 16.539 17.8452 16.2398L18.381 12.6496C18.4048 12.4821 18.3572 12.3025 18.2381 12.1709C18.1191 12.0393 17.9643 11.9674 17.7857 11.9674H14.9405V10.3159C14.9405 9.17903 15.7024 9.04739 16.2857 9.04739H17.7857C18.1191 9.04739 18.381 8.7841 18.381 8.44902V5.61274C18.381 5.32552 18.1667 5.07419 17.881 5.02633C17.8214 5.02633 16.4524 4.78698 15.119 4.78698C11.9286 4.78698 10.0238 6.71374 10.0238 9.93299V11.9674H7.7381C7.40476 11.9674 7.14286 12.2307 7.14286 12.5658V16.1561C7.14286 16.4911 7.40476 16.7544 7.7381 16.7544H10.0238V23.6716C4.85714 22.5347 1.16667 17.9751 1.16667 12.5658C1.16667 6.29488 6.23809 1.19674 12.4762 1.19674C18.7143 1.19674 23.7857 6.29488 23.7857 12.5658C23.7857 17.9631 20.1071 22.5227 14.9286 23.6716H14.9524Z" fill="#503D2E"/>
</svg>
