<svg width="22" height="22" viewBox="0 0 22 22" fill="none" xmlns="http://www.w3.org/2000/svg">
<path d="M21.1771 9.10416C21.1354 8.85416 20.9167 8.66664 20.6667 8.66664H10.8959C10.6042 8.66664 10.375 8.89581 10.375 9.18748V13.1042C10.375 13.3958 10.6042 13.625 10.8959 13.625H15.8125C15.5104 14.5 14.9271 15.2396 14.125 15.7812C13.2083 16.3854 12.125 16.6979 10.8959 16.6979C8.48961 16.6979 6.35414 15.1146 5.57289 12.7396C5.37497 12.1666 5.27083 11.5521 5.27083 10.9271C5.27083 10.3021 5.37497 9.70832 5.57289 9.10416C6.35414 6.73957 8.50002 5.15623 10.8959 5.15623C12.2917 5.15623 13.5417 5.64583 14.5104 6.57291C14.7187 6.77083 15.0417 6.76041 15.2396 6.57291L18.1979 3.60416C18.2916 3.49999 18.3542 3.36456 18.3542 3.22914C18.3542 3.09372 18.2917 2.95832 18.1875 2.85416C16.1979 0.979157 13.6771 0 10.8959 0C6.76044 0 3.03124 2.31248 1.16666 6.03123C0.385412 7.57289 0 9.21875 0 10.9375C0 12.6562 0.395828 14.3021 1.16666 15.8437C3.03124 19.5625 6.76044 21.875 10.8959 21.875C13.7396 21.875 16.2292 20.9583 18.1042 19.2083C20.1979 17.2708 21.3542 14.4167 21.3542 11.1667C21.3542 10.4896 21.3021 9.8125 21.1771 9.11458V9.10416ZM17.3958 18.4375C15.7083 20 13.4688 20.8229 10.8959 20.8229C7.15627 20.8229 3.78127 18.7292 2.10419 15.3646C1.40627 13.9687 1.04167 12.4792 1.04167 10.9271C1.04167 9.37499 1.39585 7.8854 2.10419 6.48956C3.79169 3.12498 7.15627 1.03124 10.8959 1.03124C13.2292 1.03124 15.3542 1.79166 17.0729 3.24999L14.8542 5.47914C13.75 4.58331 12.3959 4.11456 10.8959 4.11456C8.04169 4.11456 5.51044 5.98958 4.58336 8.78124C4.34378 9.48958 4.22916 10.2187 4.22916 10.9375C4.22916 11.6562 4.35419 12.4166 4.58336 13.0937C5.51044 15.8854 8.04169 17.7604 10.8959 17.7604C12.3125 17.7604 13.6354 17.3854 14.7083 16.6667C15.9167 15.8542 16.7292 14.625 17 13.2291C17.0313 13.0729 17 12.9166 16.8958 12.8021C16.8021 12.6771 16.6459 12.6146 16.4896 12.6146H11.4167V9.73956H20.2187C20.2812 10.2291 20.3125 10.7083 20.3125 11.1875C20.3125 14.1354 19.2813 16.7188 17.4063 18.4583L17.3958 18.4375Z" fill="#503D2E"/>
</svg>
