<svg width="16" height="16" viewBox="0 0 16 16" fill="none" xmlns="http://www.w3.org/2000/svg">
<path d="M15.3467 11.7316C15.66 10.4632 15.8333 9.155 15.8333 7.91667C15.8333 3.55167 12.2817 0 7.91667 0C3.55167 0 0 3.55167 0 7.91667C0 9.155 0.17332 10.4634 0.486654 11.7326C0.491654 11.7584 0.491584 11.7843 0.49825 11.8101C0.512417 11.8684 0.532505 11.9216 0.546672 11.98C0.565838 12.0508 0.579162 12.1242 0.599162 12.195C0.603328 12.2117 0.615098 12.2234 0.620931 12.2384C0.699264 12.5242 0.774258 12.8141 0.864258 13.0857L1.25834 14.3634C1.53417 15.2567 2.36092 15.8333 3.25175 15.8333C3.45258 15.8333 3.65675 15.8043 3.85925 15.7426L4.66248 15.4966C4.98248 15.3991 5.24494 15.1833 5.40161 14.8883C5.55828 14.5933 5.5917 14.2551 5.49337 13.9368L4.25659 9.88993C4.15826 9.57077 3.94163 9.30828 3.64746 9.15161C3.35246 8.99578 3.01493 8.96254 2.69409 9.06087L1.90918 9.30176C1.53585 9.41593 1.22075 9.63166 0.975749 9.90499C0.883249 9.23332 0.834961 8.56498 0.834961 7.91748C0.834961 4.01165 4.01246 0.834147 7.91829 0.834147C11.8241 0.834147 15.0016 4.01165 15.0016 7.91748C15.0016 8.56498 14.9533 9.23332 14.8608 9.90499C14.6167 9.63082 14.3016 9.41593 13.9274 9.30176L13.1425 9.06087C12.8225 8.96337 12.4841 8.99578 12.1891 9.15161C11.8941 9.30828 11.6783 9.57075 11.58 9.89075L10.3442 13.9368C10.2459 14.2559 10.2783 14.5941 10.435 14.8891C10.5916 15.1841 10.8541 15.4008 11.1733 15.4974L11.9775 15.7434C12.1792 15.8051 12.3834 15.8341 12.585 15.8341C13.475 15.8341 14.3024 15.2584 14.5782 14.3642L14.9717 13.0908C15.0651 12.8067 15.1426 12.5126 15.2218 12.2192C15.2251 12.2101 15.2349 12.205 15.2382 12.1958C15.2574 12.1258 15.2716 12.0541 15.2899 11.9832C15.3049 11.9249 15.325 11.8701 15.3392 11.8109C15.3417 11.7842 15.3417 11.7582 15.3467 11.7316ZM2.15169 10.0975L2.9366 9.85657C2.97744 9.84407 3.01908 9.83826 3.05908 9.83826C3.12658 9.83826 3.19336 9.85499 3.25419 9.88749C3.35252 9.93999 3.42412 10.0274 3.45662 10.1333L4.69421 14.1801C4.72671 14.2859 4.71496 14.3992 4.66329 14.4967C4.61162 14.595 4.52421 14.6674 4.41671 14.6999L3.61247 14.9459C2.95913 15.1475 2.25574 14.7757 2.05241 14.1182L1.65588 12.8333C1.54172 12.4883 1.44258 12.1316 1.35091 11.7733C1.33091 11.6958 1.31332 11.6174 1.29415 11.5399C1.17998 10.9074 1.54169 10.2841 2.15169 10.0975ZM14.1734 12.84L13.7791 14.1174C13.5758 14.7749 12.8734 15.1467 12.2192 14.9451L11.4142 14.6991C11.3075 14.6666 11.2209 14.595 11.1684 14.4959C11.1167 14.3975 11.105 14.2849 11.1383 14.1783L12.3751 10.1324C12.4076 10.0258 12.4792 9.93836 12.5775 9.88586C12.6383 9.85336 12.7049 9.83663 12.7724 9.83663C12.8133 9.83663 12.8551 9.84244 12.8951 9.85494L13.68 10.0958C14.29 10.2825 14.6518 10.9058 14.5359 11.5367C14.5168 11.615 14.5 11.6933 14.4792 11.7708C14.3875 12.13 14.2884 12.4858 14.1742 12.8308C14.175 12.8341 14.1742 12.8375 14.1734 12.84Z" fill="#0C0A09"/>
</svg>
