<svg width="18" height="16" viewBox="0 0 18 16" fill="none" xmlns="http://www.w3.org/2000/svg">
<path d="M17.0625 2.21991C16.6808 1.71324 16.0575 1.39486 15.21 1.27569L6.4092 0.0423761C5.56253 -0.0767906 4.88002 0.0556264 4.37419 0.43646C3.86752 0.818126 3.54916 1.4416 3.42916 2.28827L3.28084 3.32993H2.63916C0.937494 3.32993 0 4.26743 0 5.96909V13.1924C0 14.8941 0.937494 15.8316 2.63916 15.8316H11.5291C13.0566 15.8316 13.9616 15.0724 14.1333 13.6882C15.4425 13.6565 16.245 12.8782 16.4567 11.4049L17.4567 4.25401C17.5767 3.41067 17.4441 2.72574 17.0625 2.21991ZM2.63916 4.16327H11.5291C12.7783 4.16327 13.3359 4.71993 13.3359 5.96909V10.7048L10.1275 7.4966C9.67413 7.04327 8.93749 7.04493 8.48582 7.4966L4.89665 11.1565L4.20003 10.4599C3.76503 10.024 2.99579 10.0224 2.55829 10.4599L0.83252 12.1865V5.96909C0.833353 4.71993 1.38999 4.16327 2.63916 4.16327ZM11.5291 14.9982H2.63916C1.44833 14.9982 0.893302 14.485 0.843302 13.355L3.14921 11.049C3.27254 10.9265 3.49163 10.9282 3.61247 11.049L4.30918 11.7457C4.60335 12.0407 5.125 12.039 5.41667 11.7457L9.07664 8.08579C9.20164 7.95996 9.41417 7.96079 9.54 8.08579L13.3375 11.8832V13.1924C13.3358 14.4416 12.7783 14.9982 11.5291 14.9982ZM16.6317 4.13824L15.6317 11.2883C15.4842 12.3208 15.0259 12.8191 14.1692 12.8591V5.96909C14.1692 4.26743 13.2316 3.32993 11.5291 3.32993H4.12252L4.25415 2.40484C4.34165 1.78484 4.54998 1.34569 4.87498 1.10235C5.19748 0.858187 5.67502 0.778201 6.29252 0.867368L15.0934 2.10068C15.7142 2.18818 16.1525 2.39662 16.3959 2.72162C16.6409 3.04412 16.7192 3.52074 16.6317 4.13824ZM3.33333 7.49823C3.33333 7.03739 3.69582 6.66489 4.15415 6.66489H4.17084C4.62917 6.66489 5 7.03739 5 7.49823C5 7.95906 4.62917 8.33156 4.17084 8.33156C3.71417 8.33156 3.33333 7.95906 3.33333 7.49823Z" fill="#0C0A09"/>
</svg>
