<svg width="16" height="16" viewBox="0 0 16 16" fill="none" xmlns="http://www.w3.org/2000/svg">
<path d="M7.91583 6.66667C8.91166 6.66667 9.72165 5.85667 9.72165 4.86084C9.72165 3.86501 8.91166 3.05501 7.91583 3.05501C6.91999 3.05501 6.11 3.86501 6.11 4.86084C6.11 5.85667 6.91999 6.66667 7.91583 6.66667ZM7.91583 3.88835C8.45166 3.88835 8.88832 4.32417 8.88832 4.86084C8.88832 5.39751 8.45249 5.83333 7.91583 5.83333C7.37916 5.83333 6.94333 5.39751 6.94333 4.86084C6.94333 4.32417 7.37999 3.88835 7.91583 3.88835ZM15.2767 4.23909C14.9133 4.01326 14.4458 4.00248 14.0217 4.21081L12.7767 4.83419C12.7617 2.16585 10.5883 0 7.91667 0C5.38167 0 3.29666 1.95178 3.07749 4.43095L1.05667 5.44495C0.405004 5.77161 0 6.42843 0 7.15759V14.1667C0 14.605 0.22082 15.0042 0.59082 15.2342C0.959987 15.4642 1.41498 15.4867 1.81165 15.2917L4.65251 13.8625C4.74917 13.8167 4.83832 13.7933 4.93749 13.7933C5.05249 13.7867 5.13916 13.8001 5.22832 13.8342L10.3067 15.7334C10.4825 15.8018 10.6542 15.835 10.805 15.835C10.8433 15.835 10.88 15.8326 10.9158 15.8284C11.1233 15.8284 11.32 15.7809 11.5442 15.675L14.7767 14.0501C15.4275 13.7226 15.8325 13.0658 15.8325 12.3374V5.32511C15.8325 4.85511 15.63 4.45909 15.2767 4.23909ZM7.91583 0.832519C10.1367 0.832519 11.9433 2.64001 11.9433 4.86084C11.9433 5.04751 11.925 5.22759 11.8983 5.40426C11.8925 5.42092 11.8925 5.43927 11.8892 5.45593C11.7383 6.36843 11.2558 7.14339 10.6275 7.81006C10.6225 7.81506 10.6192 7.82011 10.6142 7.82511C9.82917 8.65345 8.82667 9.31593 7.98167 9.87427L7.91583 9.91842L7.84999 9.87427C7.00499 9.31593 6.00332 8.65345 5.21749 7.82511C5.21249 7.82011 5.20916 7.81506 5.20416 7.81006C4.4425 7.00256 3.88748 6.03917 3.88748 4.86084C3.88831 2.64001 5.69499 0.832519 7.91583 0.832519ZM1.44 14.5451C1.305 14.6117 1.15583 14.6043 1.02999 14.5268C0.90416 14.4484 0.831655 14.3167 0.831655 14.1659V7.15678C0.831655 6.74428 1.05999 6.37335 1.42832 6.18835L3.08167 5.35828C3.20916 6.51161 3.77084 7.4666 4.4975 8.2666V13.0367C4.4275 13.0592 4.3575 13.0793 4.28584 13.1126L1.44 14.5451ZM5.525 13.055C5.4625 13.0308 5.39749 13.0183 5.33249 13.0033V9.07328C6.02416 9.66578 6.76499 10.1567 7.39082 10.5701L7.68499 10.765C7.75499 10.8116 7.83583 10.835 7.91583 10.835C7.99583 10.835 8.07667 10.8116 8.14667 10.765L8.44083 10.5701C9.06666 10.1567 9.8075 9.66495 10.4992 9.07328V14.9158L5.525 13.055ZM14.9992 12.3374C14.9992 12.7491 14.7708 13.12 14.4025 13.3059L11.3325 14.8492V8.26843C11.9608 7.57677 12.4642 6.76911 12.6717 5.81828L14.3908 4.95829C14.5483 4.87996 14.72 4.87584 14.8358 4.94751C14.9708 5.03168 14.9992 5.20009 14.9992 5.32593V12.3374Z" fill="#0C0A09"/>
</svg>
