<svg width="32" height="22" viewBox="0 0 32 22" fill="none" xmlns="http://www.w3.org/2000/svg">
<path d="M0 0.833333C0 0.373333 0.373333 0 0.833333 0H22.5C22.96 0 23.3333 0.373333 23.3333 0.833333C23.3333 1.29333 22.96 1.66667 22.5 1.66667H0.833333C0.373333 1.66667 0 1.29333 0 0.833333ZM30.8333 10H0.833333C0.373333 10 0 10.3733 0 10.8333C0 11.2933 0.373333 11.6667 0.833333 11.6667H30.8333C31.2933 11.6667 31.6667 11.2933 31.6667 10.8333C31.6667 10.3733 31.2933 10 30.8333 10ZM15.8333 20H0.833333C0.373333 20 0 20.3733 0 20.8333C0 21.2933 0.373333 21.6667 0.833333 21.6667H15.8333C16.2933 21.6667 16.6667 21.2933 16.6667 20.8333C16.6667 20.3733 16.2933 20 15.8333 20Z" fill="white"/>
</svg>
