<svg width="48" height="48" viewBox="0 0 24 24" fill="#25314C" xmlns="http://www.w3.org/2000/svg"><path d="M8.5 2.5h-2a1.821 1.821 0 0 0-2 2v15a1.821 1.821 0 0 0 2 2h2a1.821 1.821 0 0 0 2-2v-15a1.821 1.821 0 0 0-2-2Zm1 17c0 .72-.28 1-1 1h-2c-.72 0-1-.28-1-1v-15c0-.72.28-1 1-1h2c.72 0 1 .28 1 1Zm8-17h-2a1.821 1.821 0 0 0-2 2v15a1.821 1.821 0 0 0 2 2h2a1.821 1.821 0 0 0 2-2v-15a1.821 1.821 0 0 0-2-2Zm1 17c0 .72-.28 1-1 1h-2c-.72 0-1-.28-1-1v-15c0-.72.28-1 1-1h2c.72 0 1 .28 1 1Z" fill="#f7f7f7"></path></svg>