<svg width="18" height="18" viewBox="0 0 18 18" fill="none" xmlns="http://www.w3.org/2000/svg">
<path d="M11.8508 7.51078L8.11829 5.22746C7.63829 4.93246 7.05838 4.92255 6.56921 5.19755C6.07921 5.47172 5.78746 5.96995 5.78746 6.52995V10.9701C5.78746 11.5301 6.08005 12.0283 6.56921 12.3024C6.80505 12.4349 7.06247 12.5008 7.31913 12.5008C7.59497 12.5008 7.86995 12.4242 8.11829 12.2725L11.8508 9.98922C12.2858 9.72255 12.5467 9.26 12.5467 8.75C12.5467 8.24 12.2858 7.77745 11.8508 7.51078ZM11.4158 9.27836L7.68331 11.5617C7.46331 11.695 7.2 11.7007 6.975 11.5749C6.75166 11.4499 6.61916 11.2242 6.61916 10.9692V6.52913C6.61916 6.27497 6.75166 6.04826 6.975 5.92326C7.08333 5.86242 7.20084 5.83252 7.3175 5.83252C7.44334 5.83252 7.56916 5.86752 7.6825 5.93669L11.415 8.22001C11.6042 8.33501 11.7116 8.52754 11.7116 8.74837C11.7116 8.96921 11.605 9.16336 11.4158 9.27836ZM8.75 0C3.925 0 0 3.925 0 8.75C0 13.575 3.925 17.5 8.75 17.5C13.575 17.5 17.5 13.575 17.5 8.75C17.5 3.925 13.575 0 8.75 0ZM8.75 16.6667C4.385 16.6667 0.833333 13.115 0.833333 8.75C0.833333 4.385 4.385 0.833333 8.75 0.833333C13.115 0.833333 16.6667 4.385 16.6667 8.75C16.6667 13.115 13.115 16.6667 8.75 16.6667Z" fill="#0C0A09"/>
</svg>
