<svg width="48" height="48" viewBox="0 0 24 24" fill="#25314C" xmlns="http://www.w3.org/2000/svg"><path d="M12.242 2.7a2.148 2.148 0 0 0-2.314.314L6.236 6.145a1.5 1.5 0 0 1-.969.355H3.5a2 2 0 0 0-2 2v7a2 2 0 0 0 2 2h1.767a1.5 1.5 0 0 1 .969.355l3.691 3.128a2.171 2.171 0 0 0 3.573-1.656V4.673A2.149 2.149 0 0 0 12.242 2.7Zm.258 16.627a1.171 1.171 0 0 1-1.927.893l-3.69-3.128a2.505 2.505 0 0 0-1.616-.592H3.5a1 1 0 0 1-1-1v-7a1 1 0 0 1 1-1h1.767a2.505 2.505 0 0 0 1.616-.592l3.691-3.128a1.17 1.17 0 0 1 1.926.893Zm4.09-11.922a6.482 6.482 0 0 1 0 9.19.5.5 0 1 1-.7-.709 5.483 5.483 0 0 0 0-7.772.5.5 0 0 1 .705-.709ZM22.5 12a10.418 10.418 0 0 1-3.079 7.424.5.5 0 1 1-.707-.708 9.488 9.488 0 0 0 0-13.432.5.5 0 1 1 .707-.708A10.418 10.418 0 0 1 22.5 12Z" fill="#f7f7f7"></path></svg>